<?xml version="1.0" encoding="UTF-8" standalone="no"?>
<!-- Created with Inkscape (http://www.inkscape.org/) -->
<svg
   xmlns:dc="http://purl.org/dc/elements/1.1/"
   xmlns:cc="http://creativecommons.org/ns#"
   xmlns:rdf="http://www.w3.org/1999/02/22-rdf-syntax-ns#"
   xmlns:svg="http://www.w3.org/2000/svg"
   xmlns="http://www.w3.org/2000/svg"
   xmlns:sodipodi="http://sodipodi.sourceforge.net/DTD/sodipodi-0.dtd"
   xmlns:inkscape="http://www.inkscape.org/namespaces/inkscape"
   width="48"
   height="48"
   id="svg2"
   sodipodi:version="0.32"
   inkscape:version="0.46"
   sodipodi:docname="pan.svg"
   inkscape:output_extension="org.inkscape.output.svg.inkscape"
   version="1.0"
   inkscape:export-filename="/home/rugby471/Desktop/pan.png"
   inkscape:export-xdpi="90"
   inkscape:export-ydpi="90">
  <defs
     id="defs4">
    <inkscape:perspective
       sodipodi:type="inkscape:persp3d"
       inkscape:vp_x="0 : 526.18109 : 1"
       inkscape:vp_y="0 : 1000 : 0"
       inkscape:vp_z="744.09448 : 526.18109 : 1"
       inkscape:persp3d-origin="372.04724 : 350.78739 : 1"
       id="perspective10" />
    <inkscape:perspective
       id="perspective2390"
       inkscape:persp3d-origin="372.04724 : 350.78739 : 1"
       inkscape:vp_z="744.09448 : 526.18109 : 1"
       inkscape:vp_y="0 : 1000 : 0"
       inkscape:vp_x="0 : 526.18109 : 1"
       sodipodi:type="inkscape:persp3d" />
  </defs>
  <sodipodi:namedview
     id="base"
     pagecolor="#ffffff"
     bordercolor="#666666"
     borderopacity="1.0"
     gridtolerance="10000"
     guidetolerance="10"
     objecttolerance="10"
     inkscape:pageopacity="0.0"
     inkscape:pageshadow="2"
     inkscape:zoom="7.9195959"
     inkscape:cx="19.486314"
     inkscape:cy="24.456445"
     inkscape:document-units="px"
     inkscape:current-layer="layer1"
     showgrid="false" />
  <metadata
     id="metadata7">
    <rdf:RDF>
      <cc:Work
         rdf:about="">
        <dc:format>image/svg+xml</dc:format>
        <dc:type
           rdf:resource="http://purl.org/dc/dcmitype/StillImage" />
      </cc:Work>
    </rdf:RDF>
  </metadata>
  <g
     inkscape:label="Layer 1"
     inkscape:groupmode="layer"
     id="layer1">
    <g
       id="g3208"
       transform="matrix(8.801846e-2,0,0,8.801846e-2,-8.7609877,-23.288001)">
      <path
         sodipodi:nodetypes="ccsccsc"
         id="path2398"
         d="M 480.8062,507.68343 L 485.98477,511.79057 C 513.25624,486.63112 540.45374,463.65368 569.91334,442.32628 C 590.38552,427.50536 613.23651,416.35357 633.3062,400.18343 C 637.42523,394.77542 637.0343,390.18741 635.98477,385.71914 C 634.82582,388.88373 634.83977,393.04387 632.14669,394.86973 C 580.94176,429.5857 519.54688,467.54683 480.8062,507.68343 z"
         style="fill:none;fill-rule:evenodd;stroke:#2e3436;stroke-width:10;stroke-linecap:butt;stroke-linejoin:miter;stroke-miterlimit:4;stroke-dasharray:none;stroke-opacity:1" />
      <path
         sodipodi:nodetypes="cccccc"
         id="path2396"
         d="M 458.75,490.04075 C 510.98435,445.30382 560.59028,409.57779 611.42857,374.1479 C 634.97154,369.14514 641.51835,384.88793 633.57143,390.93361 C 576.9826,422.55907 530.19663,463.98738 481.78572,503.79075 L 481.96429,503.96932 L 458.75,490.04075 z"
         style="fill:#babdb6;fill-rule:evenodd;stroke:#555753;stroke-width:10;stroke-linecap:butt;stroke-linejoin:miter;stroke-miterlimit:4;stroke-dasharray:none;stroke-opacity:1" />
      <path
         transform="matrix(1.1633224,0,0,1.3863204,-34.718179,-171.78262)"
         d="M 473.57143,528.79077 A 175.71428,74.285713 0 1 1 122.14287,528.79077 A 175.71428,74.285713 0 1 1 473.57143,528.79077 z"
         sodipodi:ry="74.285713"
         sodipodi:rx="175.71428"
         sodipodi:cy="528.79077"
         sodipodi:cx="297.85715"
         id="path2402"
         style="opacity:1;fill:#555753;fill-opacity:1;fill-rule:nonzero;stroke:#2e3436;stroke-width:7.87441206;stroke-linecap:round;stroke-linejoin:round;marker:none;marker-start:none;marker-mid:none;marker-end:none;stroke-miterlimit:4;stroke-dasharray:none;stroke-dashoffset:0;stroke-opacity:1;visibility:visible;display:inline;overflow:visible;enable-background:accumulate"
         sodipodi:type="arc" />
      <path
         sodipodi:type="arc"
         style="opacity:1;fill:#3b4346;fill-opacity:1;fill-rule:nonzero;stroke:#151718;stroke-width:11.03088379;stroke-linecap:round;stroke-linejoin:round;marker:none;marker-start:none;marker-mid:none;marker-end:none;stroke-miterlimit:4;stroke-dasharray:none;stroke-dashoffset:0;stroke-opacity:1;visibility:visible;display:inline;overflow:visible;enable-background:accumulate"
         id="path2404"
         sodipodi:cx="297.85715"
         sodipodi:cy="528.79077"
         sodipodi:rx="175.71428"
         sodipodi:ry="74.285713"
         d="M 473.57143,528.79077 A 175.71428,74.285713 0 1 1 122.14287,528.79077 A 175.71428,74.285713 0 1 1 473.57143,528.79077 z"
         transform="matrix(0.8725154,0,0,0.9419032,51.900775,106.07823)" />
      <path
         transform="matrix(1.1633224,0,0,1.3863204,-34.718179,-171.78262)"
         d="M 297.84375,462.5 C 250.26146,462.5 207.20399,470.7485 176.75,483.625 C 161.52301,490.06325 149.48763,497.67482 141.625,505.53125 C 133.76237,513.38768 130.15625,521.0886 130.15625,528.78125 C 130.15625,536.4739 133.76237,544.17482 141.625,552.03125 C 149.48763,559.88768 161.52301,567.49925 176.75,573.9375 C 207.20399,586.814 250.26146,595.0625 297.84375,595.0625 C 345.42604,595.0625 388.5066,586.81429 418.96875,573.9375 C 434.19982,567.49911 446.22829,559.88792 454.09375,552.03125 C 461.95921,544.17458 465.5625,536.47289 465.5625,528.78125 C 465.5625,521.08961 461.95921,513.38792 454.09375,505.53125 C 446.22829,497.67458 434.19982,490.06339 418.96875,483.625 C 388.5066,470.74821 345.42604,462.5 297.84375,462.5 z"
         id="path3202"
         style="opacity:0.37606835;fill:none;fill-opacity:1;fill-rule:nonzero;stroke:#ffffff;stroke-width:7.87441206;stroke-linecap:round;stroke-linejoin:round;marker:none;marker-start:none;marker-mid:none;marker-end:none;stroke-miterlimit:4;stroke-dasharray:none;stroke-dashoffset:0;stroke-opacity:1;visibility:visible;display:inline;overflow:visible;enable-background:accumulate"
         inkscape:original="M 297.84375 454.5 C 200.84947 454.5 122.15625 487.77554 122.15625 528.78125 C 122.15625 569.78696 200.84947 603.06251 297.84375 603.0625 C 394.83803 603.0625 473.56252 569.78696 473.5625 528.78125 C 473.5625 487.77554 394.83803 454.49999 297.84375 454.5 z "
         inkscape:radius="-8"
         sodipodi:type="inkscape:offset" />
      <path
         transform="matrix(0.8725154,0,0,0.9419032,51.900775,106.07823)"
         d="M 297.84375,465.5 C 250.60452,465.5 207.85639,473.74279 177.90625,486.40625 C 162.93118,492.73798 151.22623,500.18592 143.75,507.65625 C 136.27377,515.12658 133.15625,522.04814 133.15625,528.78125 C 133.15625,535.51436 136.27377,542.43592 143.75,549.90625 C 151.22623,557.37658 162.93118,564.82452 177.90625,571.15625 C 207.85639,583.81971 250.60452,592.0625 297.84375,592.0625 C 345.08298,592.0625 387.82282,583.82011 417.78125,571.15625 C 432.76046,564.82432 444.48973,557.37691 451.96875,549.90625 C 459.44777,542.43559 462.5625,535.51297 462.5625,528.78125 C 462.5625,522.04953 459.44778,515.12691 451.96875,507.65625 C 444.48972,500.18559 432.76046,492.73818 417.78125,486.40625 C 387.82282,473.74239 345.08298,465.5 297.84375,465.5 z"
         id="path3198"
         style="opacity:0.38461537;fill:none;fill-opacity:1;fill-rule:nonzero;stroke:#ffffff;stroke-width:11.03088379;stroke-linecap:round;stroke-linejoin:round;marker:none;marker-start:none;marker-mid:none;marker-end:none;stroke-miterlimit:4;stroke-dasharray:none;stroke-dashoffset:0;stroke-opacity:1;visibility:visible;display:inline;overflow:visible;enable-background:accumulate"
         inkscape:original="M 297.84375 454.5 C 200.84947 454.5 122.15625 487.77554 122.15625 528.78125 C 122.15625 569.78696 200.84947 603.06251 297.84375 603.0625 C 394.83803 603.0625 473.56252 569.78696 473.5625 528.78125 C 473.5625 487.77554 394.83803 454.49999 297.84375 454.5 z "
         inkscape:radius="-11"
         sodipodi:type="inkscape:offset" />
      <path
         sodipodi:nodetypes="cscsc"
         id="path2400"
         d="M 492.85714,608.9133 C 421.80396,661.14406 319.83752,669.73688 246.02531,657.76519 C 199.5981,650.2351 159.22287,633.01484 130,608.9133 C 163.99116,659.53907 196.10495,671.53527 235.58223,682.30846 C 314.02676,703.71564 439.14675,698.34818 492.85714,608.9133 z"
         style="fill:#888a85;fill-rule:evenodd;stroke:#2e3436;stroke-width:10;stroke-linecap:butt;stroke-linejoin:miter;stroke-miterlimit:4;stroke-dasharray:none;stroke-opacity:1" />
      <path
         d="M 619.5625,380.1875 C 618.00016,380.2111 616.09599,380.48302 614.09375,380.84375 C 566.26518,414.19541 519.58576,447.98829 470.84375,489.125 L 481.125,495.25 C 527.88885,456.6615 573.83659,416.41782 629.4375,385.21875 C 630.00774,384.77222 630.09857,384.61535 629.46875,383.5625 C 628.76514,382.38631 626.25879,380.08635 619.5625,380.1875 z"
         id="path3206"
         style="opacity:0.52136751;fill:none;fill-rule:evenodd;stroke:#ffffff;stroke-width:4;stroke-linecap:butt;stroke-linejoin:miter;stroke-miterlimit:4;stroke-dasharray:none;stroke-opacity:1"
         inkscape:original="M 619.46875 373.1875 C 617.05212 373.224 614.38037 373.53091 611.4375 374.15625 C 560.59921 409.58614 510.98435 445.29433 458.75 490.03125 L 481.78125 503.78125 C 530.19216 463.97788 576.97369 422.56295 633.5625 390.9375 C 640.51605 385.64753 636.38514 372.93197 619.46875 373.1875 z "
         inkscape:radius="-7"
         sodipodi:type="inkscape:offset" />
    </g>
  </g>
</svg>
